<svg xmlns="http://www.w3.org/2000/svg" viewBox="0 0 128 128" role="img" aria-label="OceanBlue">
  <defs>
    <linearGradient id="oceanblue-favicon-bg" x1="0%" y1="0%" x2="100%" y2="100%">
      <stop offset="0%" stop-color="#38bdf8" />
      <stop offset="100%" stop-color="#0ea5e9" />
    </linearGradient>
    <linearGradient id="oceanblue-favicon-wave" x1="0%" y1="0%" x2="100%" y2="0%">
      <stop offset="0%" stop-color="#eff6ff" />
      <stop offset="100%" stop-color="#bae6fd" />
    </linearGradient>
  </defs>
  <rect width="128" height="128" rx="28" fill="#020617" />
  <rect x="8" y="8" width="112" height="112" rx="24" fill="url(#oceanblue-favicon-bg)" opacity="0.14" />
  <path d="M20 78c10-12 18-18 30-18 15 0 22 16 34 16 8 0 14-4 24-14v18c-8 8-16 12-25 12-15 0-22-16-34-16-10 0-18 6-29 18z" fill="url(#oceanblue-favicon-wave)" />
  <path d="M20 56c10-12 18-18 30-18 15 0 22 16 34 16 8 0 14-4 24-14v18c-8 8-16 12-25 12-15 0-22-16-34-16-10 0-18 6-29 18z" fill="url(#oceanblue-favicon-wave)" opacity="0.94" />
  <circle cx="94" cy="34" r="10" fill="#7dd3fc" opacity="0.9" />
</svg>
